STARTFONT 2.1
COMMENT
COMMENT Converted from OpenType font "Bitmgothic.ttf" by "otf2bdf 3.0".
COMMENT
FONT -FreeType-Bitmgothic-Medium-R-Normal--17-120-100-100-P-89-ISO10646-1
SIZE 12 100 100
FONTBOUNDINGBOX 17 17 -2 -4
STARTPROPERTIES 19
FOUNDRY "FreeType"
FAMILY_NAME "Bitmgothic"
WEIGHT_NAME "Medium"
SLANT "R"
SETWIDTH_NAME "Normal"
ADD_STYLE_NAME ""
PIXEL_SIZE 17
POINT_SIZE 120
RESOLUTION_X 100
RESOLUTION_Y 100
SPACING "P"
AVERAGE_WIDTH 89
CHARSET_REGISTRY "ISO10646"
CHARSET_ENCODING "1"
FONT_ASCENT 12
FONT_DESCENT 4
COPYRIGHT "Nomi"
_OTF_FONTFILE "Bitmgothic.ttf"
_OTF_PSNAME "Bitmgothic"
ENDPROPERTIES
CHARS 107
STARTCHAR 0020
ENCODING 32
SWIDTH 300 0
DWIDTH 5 0
BBX 0 0 0 0
BITMAP
ENDCHAR
STARTCHAR 0021
ENCODING 33
SWIDTH 300 0
DWIDTH 5 0
BBX 3 15 1 -2
BITMAP
20
60
E0
C0
C0
C0
C0
C0
C0
40
40
00
40
E0
40
ENDCHAR
STARTCHAR 0022
ENCODING 34
SWIDTH 540 0
DWIDTH 9 0
BBX 7 5 0 7
BITMAP
66
EE
44
CC
88
ENDCHAR
STARTCHAR 0023
ENCODING 35
SWIDTH 600 0
DWIDTH 10 0
BBX 10 13 -1 -2
BITMAP
0DC0
1900
1B00
1B00
7FC0
3600
3600
3600
FF00
2C00
6C00
C800
1000
ENDCHAR
STARTCHAR 0024
ENCODING 36
SWIDTH 720 0
DWIDTH 12 0
BBX 10 15 1 -2
BITMAP
0440
1F80
3580
3400
3400
3400
1400
0C00
0780
05C0
05C0
05C0
7580
9F00
C000
ENDCHAR
STARTCHAR 0025
ENCODING 37
SWIDTH 780 0
DWIDTH 13 0
BBX 12 14 0 -2
BITMAP
00E0
0180
6180
F380
B200
B200
6400
0400
08E0
09B0
11B0
10E0
2000
6000
ENDCHAR
STARTCHAR 0026
ENCODING 38
SWIDTH 840 0
DWIDTH 14 0
BBX 13 14 0 -1
BITMAP
3000
5800
D800
D800
F800
7000
31C0
3180
6B80
CE10
C628
6788
6DD0
38E0
ENDCHAR
STARTCHAR 0027
ENCODING 39
SWIDTH 240 0
DWIDTH 4 0
BBX 3 6 0 5
BITMAP
60
E0
E0
60
40
80
ENDCHAR
STARTCHAR 0028
ENCODING 40
SWIDTH 300 0
DWIDTH 5 0
BBX 4 13 0 -2
BITMAP
10
20
60
40
C0
C0
C0
C0
C0
C0
40
20
10
ENDCHAR
STARTCHAR 0029
ENCODING 41
SWIDTH 300 0
DWIDTH 5 0
BBX 4 13 0 -2
BITMAP
80
40
60
20
30
30
30
30
30
30
20
40
80
ENDCHAR
STARTCHAR 002A
ENCODING 42
SWIDTH 360 0
DWIDTH 6 0
BBX 5 7 0 5
BITMAP
20
A8
70
70
20
50
88
ENDCHAR
STARTCHAR 002B
ENCODING 43
SWIDTH 540 0
DWIDTH 9 0
BBX 7 7 0 0
BITMAP
10
10
10
FE
10
10
10
ENDCHAR
STARTCHAR 002C
ENCODING 44
SWIDTH 240 0
DWIDTH 4 0
BBX 2 4 1 -2
BITMAP
C0
C0
40
80
ENDCHAR
STARTCHAR 002D
ENCODING 45
SWIDTH 240 0
DWIDTH 4 0
BBX 3 1 0 3
BITMAP
E0
ENDCHAR
STARTCHAR 002E
ENCODING 46
SWIDTH 240 0
DWIDTH 4 0
BBX 2 2 1 0
BITMAP
C0
C0
ENDCHAR
STARTCHAR 002F
ENCODING 47
SWIDTH 360 0
DWIDTH 6 0
BBX 7 11 -2 0
BITMAP
06
04
0C
08
08
10
10
20
20
40
C0
ENDCHAR
STARTCHAR 0030
ENCODING 48
SWIDTH 600 0
DWIDTH 10 0
BBX 9 13 0 0
BITMAP
1800
2C00
4600
C380
C380
C380
C380
C380
C380
C380
6200
3400
1800
ENDCHAR
STARTCHAR 0031
ENCODING 49
SWIDTH 540 0
DWIDTH 9 0
BBX 7 13 0 0
BITMAP
0C
18
38
F8
F8
18
18
18
18
18
18
18
7E
ENDCHAR
STARTCHAR 0032
ENCODING 50
SWIDTH 600 0
DWIDTH 10 0
BBX 10 13 -1 0
BITMAP
3C00
3E00
0300
0300
0300
0300
0600
0C00
1800
38C0
3100
7F00
FF00
ENDCHAR
STARTCHAR 0033
ENCODING 51
SWIDTH 540 0
DWIDTH 9 0
BBX 8 15 -1 -2
BITMAP
3C
3E
03
03
03
03
06
1C
0E
07
C3
63
63
36
1C
ENDCHAR
STARTCHAR 0034
ENCODING 52
SWIDTH 660 0
DWIDTH 11 0
BBX 11 15 -1 -2
BITMAP
0200
0600
0E00
0E00
1E00
1600
1600
2660
67C0
FFC0
0600
0600
0600
0700
0C00
ENDCHAR
STARTCHAR 0035
ENCODING 53
SWIDTH 540 0
DWIDTH 9 0
BBX 7 15 0 -2
BITMAP
06
FC
F0
80
80
80
F0
F8
0C
0C
04
04
08
F8
F0
ENDCHAR
STARTCHAR 0036
ENCODING 54
SWIDTH 540 0
DWIDTH 9 0
BBX 7 14 0 -1
BITMAP
06
0E
10
20
60
40
58
EC
C6
C6
C6
C6
6C
30
ENDCHAR
STARTCHAR 0037
ENCODING 55
SWIDTH 720 0
DWIDTH 12 0
BBX 11 15 0 -2
BITMAP
1020
3FC0
7FC0
8180
8380
0380
0620
3FC0
4C00
0C00
1800
1800
3000
3000
3800
ENDCHAR
STARTCHAR 0038
ENCODING 56
SWIDTH 540 0
DWIDTH 9 0
BBX 7 14 0 -1
BITMAP
30
6C
C6
E6
F6
76
38
3C
4C
C6
C6
CE
6C
30
ENDCHAR
STARTCHAR 0039
ENCODING 57
SWIDTH 540 0
DWIDTH 9 0
BBX 7 15 0 -4
BITMAP
18
3C
7E
6E
C6
C6
E6
6E
36
06
04
0C
38
F0
C0
ENDCHAR
STARTCHAR 003A
ENCODING 58
SWIDTH 240 0
DWIDTH 4 0
BBX 2 7 1 0
BITMAP
C0
C0
00
00
00
C0
C0
ENDCHAR
STARTCHAR 003B
ENCODING 59
SWIDTH 240 0
DWIDTH 4 0
BBX 2 9 1 -2
BITMAP
C0
C0
00
00
00
C0
C0
40
80
ENDCHAR
STARTCHAR 003C
ENCODING 60
SWIDTH 660 0
DWIDTH 11 0
BBX 10 10 0 -1
BITMAP
00C0
00C0
01C0
0600
1800
E000
1800
0600
01C0
00C0
ENDCHAR
STARTCHAR 003D
ENCODING 61
SWIDTH 540 0
DWIDTH 9 0
BBX 7 6 0 1
BITMAP
7E
FE
00
00
FE
FC
ENDCHAR
STARTCHAR 003E
ENCODING 62
SWIDTH 660 0
DWIDTH 11 0
BBX 10 10 0 -1
BITMAP
8000
8000
C000
3000
0C00
03C0
0C00
3000
C000
8000
ENDCHAR
STARTCHAR 003F
ENCODING 63
SWIDTH 420 0
DWIDTH 7 0
BBX 5 15 1 -2
BITMAP
E0
F0
38
18
18
18
10
20
60
40
40
00
40
E0
40
ENDCHAR
STARTCHAR 0040
ENCODING 64
SWIDTH 840 0
DWIDTH 14 0
BBX 13 14 0 -2
BITMAP
0F80
10C0
2020
61B0
4190
8F88
9A08
9208
9388
9DC8
4030
2000
10C0
0F80
ENDCHAR
STARTCHAR 0041
ENCODING 65
SWIDTH 780 0
DWIDTH 13 0
BBX 13 15 -1 -2
BITMAP
0600
1E00
2600
0B00
0B00
0B00
0B00
1FC0
11C0
11C0
30E0
30E8
7BF0
8060
C000
ENDCHAR
STARTCHAR 0042
ENCODING 66
SWIDTH 660 0
DWIDTH 11 0
BBX 11 15 -1 -2
BITMAP
4000
6F00
3DC0
16C0
16C0
16C0
14C0
3F00
15C0
16E0
16E0
35E0
7FC0
8000
6000
ENDCHAR
STARTCHAR 0043
ENCODING 67
SWIDTH 600 0
DWIDTH 10 0
BBX 9 13 0 0
BITMAP
0800
3E00
6B80
6800
E800
C800
C800
F800
C800
C800
E800
6B80
3E00
ENDCHAR
STARTCHAR 0044
ENCODING 68
SWIDTH 720 0
DWIDTH 12 0
BBX 13 14 -2 -2
BITMAP
BF00
4C80
18E0
19F0
19F0
1A78
3CF0
1970
1A70
1C70
3C70
7FF0
81E0
0080
ENDCHAR
STARTCHAR 0045
ENCODING 69
SWIDTH 720 0
DWIDTH 12 0
BBX 12 14 -1 -1
BITMAP
0060
0FE0
2CC0
6C00
6C00
4C00
CC00
CFE0
CC00
CC00
6C00
3CC0
1FE0
0010
ENDCHAR
STARTCHAR 0046
ENCODING 70
SWIDTH 720 0
DWIDTH 12 0
BBX 13 15 -2 -2
BITMAP
0180
0388
07F8
2CF0
7CF0
7C60
2C00
0F80
2C00
7C00
2C00
0C00
CC00
9C00
7000
ENDCHAR
STARTCHAR 0047
ENCODING 71
SWIDTH 720 0
DWIDTH 12 0
BBX 11 13 0 0
BITMAP
0800
3E00
6B80
6800
E800
E800
C800
CEE0
CBC0
C980
E980
6BC0
3EE0
ENDCHAR
STARTCHAR 0048
ENCODING 72
SWIDTH 660 0
DWIDTH 11 0
BBX 11 15 -1 -2
BITMAP
0700
9CC0
7800
1900
1BC0
1BC0
1DC0
18E0
1AE0
1AE0
18E0
1CE0
79C0
8300
C400
ENDCHAR
STARTCHAR 0049
ENCODING 73
SWIDTH 540 0
DWIDTH 9 0
BBX 9 15 -2 -2
BITMAP
0080
4300
3E00
1600
1600
1600
1600
3600
1600
1600
1780
1700
3E00
4000
8000
ENDCHAR
STARTCHAR 004A
ENCODING 74
SWIDTH 600 0
DWIDTH 10 0
BBX 11 14 -2 -1
BITMAP
01E0
0F00
3F00
4B00
CB00
8B00
3F00
0B00
0B00
1F00
CB00
2700
1E00
0C00
ENDCHAR
STARTCHAR 004B
ENCODING 75
SWIDTH 840 0
DWIDTH 14 0
BBX 14 15 -1 -2
BITMAP
87C0
8C00
7800
19C0
1BE0
1AE0
1CE0
1CC0
1B00
18C8
1AC4
1E68
7870
8000
E000
ENDCHAR
STARTCHAR 004C
ENCODING 76
SWIDTH 720 0
DWIDTH 12 0
BBX 13 14 -2 -1
BITMAP
0300
0C80
D860
3960
39E0
1880
1800
1800
18E0
1830
1808
3E08
7FF0
83E0
ENDCHAR
STARTCHAR 004D
ENCODING 77
SWIDTH 840 0
DWIDTH 14 0
BBX 15 15 -2 -2
BITMAP
0030
0678
098E
198C
198C
198C
798C
198C
198C
798C
198C
190C
D888
9C70
7000
ENDCHAR
STARTCHAR 004E
ENCODING 78
SWIDTH 780 0
DWIDTH 13 0
BBX 14 15 -2 -2
BITMAP
F80C
39F8
1CF0
1C60
1E60
1E60
1660
1760
1360
11E0
11E0
10F8
3CF0
4060
7000
ENDCHAR
STARTCHAR 004F
ENCODING 79
SWIDTH 720 0
DWIDTH 12 0
BBX 11 14 0 -1
BITMAP
0600
2E00
6B80
79C0
F9C0
C9C0
F8E0
C8E0
C8E0
E8E0
69C0
7B80
3E00
1800
ENDCHAR
STARTCHAR 0050
ENCODING 80
SWIDTH 660 0
DWIDTH 11 0
BBX 11 17 -1 -4
BITMAP
2300
73C0
9DE0
18E0
18E0
18E0
1AE0
1AE0
1AE0
18E0
38E0
7CC0
9B00
1800
1800
5800
3C00
ENDCHAR
STARTCHAR 0051
ENCODING 81
SWIDTH 960 0
DWIDTH 16 0
BBX 15 15 0 -2
BITMAP
1C00
3E00
6B80
49C0
C9E0
C9E0
C9E0
C9E0
C9E0
D7EC
63C2
7782
3FE4
00FC
0038
ENDCHAR
STARTCHAR 0052
ENCODING 82
SWIDTH 960 0
DWIDTH 16 0
BBX 16 15 -1 -2
BITMAP
2000
7700
9DC0
18C0
1DC0
1DC0
1F00
1E00
1BC0
19E6
18F1
1A79
BC1F
600E
001C
ENDCHAR
STARTCHAR 0053
ENCODING 83
SWIDTH 720 0
DWIDTH 12 0
BBX 10 15 1 -2
BITMAP
0C40
1F80
3000
7000
7800
3800
5C00
2F00
1780
0BC0
05C0
03C0
7380
9F00
C000
ENDCHAR
STARTCHAR 0054
ENCODING 84
SWIDTH 780 0
DWIDTH 13 0
BBX 14 13 -2 0
BITMAP
0038
03F0
7F80
9200
B600
2600
6600
7E00
6604
6604
3608
1E70
0FE0
ENDCHAR
STARTCHAR 0055
ENCODING 85
SWIDTH 780 0
DWIDTH 13 0
BBX 14 14 -2 -2
BITMAP
C204
3CF8
18F0
18F0
18B0
18B0
38B0
18B0
18B0
18B0
3CB0
67B0
81E0
0080
ENDCHAR
STARTCHAR 0056
ENCODING 86
SWIDTH 840 0
DWIDTH 14 0
BBX 15 17 -2 -4
BITMAP
0002
CC7C
78FC
7170
7370
3270
3860
18E0
1C80
1D80
0D00
0F00
0600
0660
0C80
0900
0600
ENDCHAR
STARTCHAR 0057
ENCODING 87
SWIDTH 840 0
DWIDTH 14 0
BBX 15 14 -2 -2
BITMAP
C46C
3BBE
198C
798C
798C
198C
198C
798C
198C
198C
398E
7BB8
8DE0
0480
ENDCHAR
STARTCHAR 0058
ENCODING 88
SWIDTH 780 0
DWIDTH 13 0
BBX 14 14 -2 -1
BITMAP
0004
3878
6C30
4660
66E0
2680
0300
1FE0
0700
0980
1184
24E4
F8E8
0070
ENDCHAR
STARTCHAR 0059
ENCODING 89
SWIDTH 840 0
DWIDTH 14 0
BBX 14 16 -1 -4
BITMAP
2100
FBE0
33C0
33C0
3300
3300
3308
3314
3714
7B64
1368
03C0
03C0
4300
2700
1E00
ENDCHAR
STARTCHAR 005A
ENCODING 90
SWIDTH 720 0
DWIDTH 12 0
BBX 12 14 -1 -1
BITMAP
0070
3FE0
7FC0
83C0
E3C0
6300
0300
0600
3FC0
0C00
18E0
3010
7FE0
FFC0
ENDCHAR
STARTCHAR 005B
ENCODING 91
SWIDTH 300 0
DWIDTH 5 0
BBX 4 14 0 -3
BITMAP
F0
C0
C0
C0
C0
C0
C0
C0
C0
C0
C0
C0
C0
F0
ENDCHAR
STARTCHAR 005C
ENCODING 92
SWIDTH 360 0
DWIDTH 6 0
BBX 7 11 -2 0
BITMAP
C0
40
60
20
20
10
10
08
08
04
06
ENDCHAR
STARTCHAR 005D
ENCODING 93
SWIDTH 300 0
DWIDTH 5 0
BBX 4 14 0 -3
BITMAP
F0
30
30
30
30
30
30
30
30
30
30
30
30
F0
ENDCHAR
STARTCHAR 005E
ENCODING 94
SWIDTH 600 0
DWIDTH 10 0
BBX 10 9 -1 3
BITMAP
0800
0800
0800
1C00
1400
1400
2200
4100
80C0
ENDCHAR
STARTCHAR 005F
ENCODING 95
SWIDTH 540 0
DWIDTH 9 0
BBX 7 1 0 -2
BITMAP
FE
ENDCHAR
STARTCHAR 0060
ENCODING 96
SWIDTH 300 0
DWIDTH 5 0
BBX 4 4 0 7
BITMAP
E0
60
70
30
ENDCHAR
STARTCHAR 0061
ENCODING 97
SWIDTH 540 0
DWIDTH 9 0
BBX 7 10 0 0
BITMAP
08
98
98
78
18
38
58
D8
DA
6C
ENDCHAR
STARTCHAR 0062
ENCODING 98
SWIDTH 420 0
DWIDTH 7 0
BBX 6 12 0 0
BITMAP
30
E0
60
60
60
70
68
6C
6C
6C
68
30
ENDCHAR
STARTCHAR 0063
ENCODING 99
SWIDTH 420 0
DWIDTH 7 0
BBX 6 9 0 0
BITMAP
38
38
58
C8
C0
C0
C0
4C
38
ENDCHAR
STARTCHAR 0064
ENCODING 100
SWIDTH 420 0
DWIDTH 7 0
BBX 7 12 -1 0
BITMAP
40
E0
30
38
18
0C
16
36
36
36
34
18
ENDCHAR
STARTCHAR 0065
ENCODING 101
SWIDTH 420 0
DWIDTH 7 0
BBX 6 10 0 0
BITMAP
30
38
38
58
D8
E0
C0
C0
CC
70
ENDCHAR
STARTCHAR 0066
ENCODING 102
SWIDTH 360 0
DWIDTH 6 0
BBX 6 14 -1 -2
BITMAP
08
14
30
30
30
70
BC
30
30
30
30
38
70
20
ENDCHAR
STARTCHAR 0067
ENCODING 103
SWIDTH 540 0
DWIDTH 9 0
BBX 7 13 0 -4
BITMAP
1A
1A
3C
58
D8
D8
D8
D8
68
0C
02
7E
CC
ENDCHAR
STARTCHAR 0068
ENCODING 104
SWIDTH 780 0
DWIDTH 13 0
BBX 12 15 0 -2
BITMAP
3000
6000
E000
6400
6C00
6C00
7C00
6C00
6C00
6C00
6C00
6C00
F430
04C0
0380
ENDCHAR
STARTCHAR 0069
ENCODING 105
SWIDTH 300 0
DWIDTH 5 0
BBX 4 15 0 -2
BITMAP
20
70
20
00
20
20
60
E0
60
60
60
60
F0
60
20
ENDCHAR
STARTCHAR 006A
ENCODING 106
SWIDTH 360 0
DWIDTH 6 0
BBX 6 17 -1 -4
BITMAP
10
38
10
00
10
10
30
70
B0
30
30
30
18
0C
1C
78
80
ENDCHAR
STARTCHAR 006B
ENCODING 107
SWIDTH 720 0
DWIDTH 12 0
BBX 11 13 0 0
BITMAP
3000
6000
E000
6400
6C00
6C00
7600
6400
7800
7800
6C20
66C0
F380
ENDCHAR
STARTCHAR 006C
ENCODING 108
SWIDTH 420 0
DWIDTH 7 0
BBX 7 15 -1 -2
BITMAP
1C
30
70
B0
B0
30
30
30
30
30
30
30
36
78
10
ENDCHAR
STARTCHAR 006D
ENCODING 109
SWIDTH 780 0
DWIDTH 13 0
BBX 13 11 -1 -1
BITMAP
1670
36F0
36F0
7FE0
B6E0
36E0
36E0
36E0
36E8
76F0
3460
ENDCHAR
STARTCHAR 006E
ENCODING 110
SWIDTH 600 0
DWIDTH 10 0
BBX 10 11 -1 -1
BITMAP
1200
3600
3600
7E00
B600
3600
3600
3600
36C0
7700
1200
ENDCHAR
STARTCHAR 006F
ENCODING 111
SWIDTH 420 0
DWIDTH 7 0
BBX 6 10 0 0
BITMAP
30
78
78
CC
CC
CC
CC
CC
78
30
ENDCHAR
STARTCHAR 0070
ENCODING 112
SWIDTH 420 0
DWIDTH 7 0
BBX 7 13 -1 -4
BITMAP
14
14
BE
76
36
36
36
36
78
B0
38
30
40
ENDCHAR
STARTCHAR 0071
ENCODING 113
SWIDTH 660 0
DWIDTH 11 0
BBX 9 14 1 -4
BITMAP
0400
3F00
3B00
5800
D800
D800
D800
D800
D800
3800
1B80
1C00
1800
1000
ENDCHAR
STARTCHAR 0072
ENCODING 114
SWIDTH 420 0
DWIDTH 7 0
BBX 6 11 0 -1
BITMAP
2C
7C
7C
E4
60
60
60
60
60
70
20
ENDCHAR
STARTCHAR 0073
ENCODING 115
SWIDTH 420 0
DWIDTH 7 0
BBX 6 11 0 -2
BITMAP
04
04
78
C8
C0
F0
18
58
58
F0
80
ENDCHAR
STARTCHAR 0074
ENCODING 116
SWIDTH 420 0
DWIDTH 7 0
BBX 6 13 0 -1
BITMAP
20
20
60
60
60
F8
60
60
60
6C
68
70
30
ENDCHAR
STARTCHAR 0075
ENCODING 117
SWIDTH 600 0
DWIDTH 10 0
BBX 9 10 0 0
BITMAP
2400
6C00
6C00
EC00
6C00
6C00
6C00
6C00
6E00
1380
ENDCHAR
STARTCHAR 0076
ENCODING 118
SWIDTH 540 0
DWIDTH 9 0
BBX 7 10 0 0
BITMAP
4C
CE
86
C6
46
66
2C
38
18
10
ENDCHAR
STARTCHAR 0077
ENCODING 119
SWIDTH 660 0
DWIDTH 11 0
BBX 12 10 -2 0
BITMAP
8000
D260
D260
76F0
36E0
36E0
36E0
36E0
16F0
0900
ENDCHAR
STARTCHAR 0078
ENCODING 120
SWIDTH 540 0
DWIDTH 9 0
BBX 8 10 -1 0
BITMAP
63
67
64
38
38
18
1C
1C
27
C3
ENDCHAR
STARTCHAR 0079
ENCODING 121
SWIDTH 540 0
DWIDTH 9 0
BBX 8 13 -1 -4
BITMAP
24
24
6E
EC
6C
6C
6C
6C
14
06
01
3F
66
ENDCHAR
STARTCHAR 007A
ENCODING 122
SWIDTH 540 0
DWIDTH 9 0
BBX 7 9 0 0
BITMAP
C6
C6
7C
18
30
60
42
FA
EC
ENDCHAR
STARTCHAR 007B
ENCODING 123
SWIDTH 360 0
DWIDTH 6 0
BBX 6 17 -1 -4
BITMAP
18
04
08
18
38
30
30
10
F8
10
10
30
30
18
08
04
18
ENDCHAR
STARTCHAR 007C
ENCODING 124
SWIDTH 180 0
DWIDTH 3 0
BBX 1 13 1 -1
BITMAP
80
80
80
80
80
80
80
80
80
80
80
80
80
ENDCHAR
STARTCHAR 007D
ENCODING 125
SWIDTH 540 0
DWIDTH 9 0
BBX 6 17 1 -4
BITMAP
60
80
40
60
70
30
30
20
7C
20
30
30
20
60
40
80
60
ENDCHAR
STARTCHAR 007E
ENCODING 126
SWIDTH 720 0
DWIDTH 12 0
BBX 12 5 -1 0
BITMAP
1010
3860
5F60
47C0
81C0
ENDCHAR
STARTCHAR 00A0
ENCODING 160
SWIDTH 300 0
DWIDTH 5 0
BBX 0 0 0 0
BITMAP
ENDCHAR
STARTCHAR 00A1
ENCODING 161
SWIDTH 300 0
DWIDTH 5 0
BBX 3 15 1 -2
BITMAP
40
E0
40
00
40
40
C0
C0
C0
C0
C0
C0
E0
60
20
ENDCHAR
STARTCHAR 00A2
ENCODING 162
SWIDTH 540 0
DWIDTH 9 0
BBX 7 13 0 -2
BITMAP
08
10
38
38
54
D4
D0
D0
D6
54
38
10
60
ENDCHAR
STARTCHAR 00A3
ENCODING 163
SWIDTH 720 0
DWIDTH 12 0
BBX 13 14 -2 -1
BITMAP
0600
0D80
3880
3180
3180
3100
1800
0900
7EE0
0830
1808
3E08
7FF0
83E0
ENDCHAR
STARTCHAR 00A4
ENCODING 164
SWIDTH 720 0
DWIDTH 12 0
BBX 12 12 -1 -1
BITMAP
C070
C070
EEF0
2EC0
1F00
31C0
31C0
31C0
1F00
2EC0
C070
C070
ENDCHAR
STARTCHAR 00A5
ENCODING 165
SWIDTH 840 0
DWIDTH 14 0
BBX 15 16 -2 -4
BITMAP
1080
7DF0
19E0
19E0
1980
1980
1980
1B80
0D80
8180
7FFC
0182
0180
2180
1380
0F00
ENDCHAR
STARTCHAR 00A6
ENCODING 166
SWIDTH 180 0
DWIDTH 3 0
BBX 1 11 1 0
BITMAP
80
80
80
80
80
00
00
80
80
80
80
ENDCHAR
STARTCHAR 00A7
ENCODING 167
SWIDTH 420 0
DWIDTH 7 0
BBX 5 14 1 -3
BITMAP
30
E8
E8
C8
C0
60
D0
C8
68
30
18
98
B8
60
ENDCHAR
STARTCHAR 00A8
ENCODING 168
SWIDTH 540 0
DWIDTH 9 0
BBX 7 5 0 7
BITMAP
66
EE
44
CC
88
ENDCHAR
STARTCHAR 00A9
ENCODING 169
SWIDTH 720 0
DWIDTH 12 0
BBX 11 11 0 0
BITMAP
1E00
2180
6DC0
4CC0
9A20
9020
9020
9A20
4CC0
2180
1E00
ENDCHAR
STARTCHAR 20AC
ENCODING 8364
SWIDTH 600 0
DWIDTH 10 0
BBX 11 14 -2 -1
BITMAP
0700
0880
18E0
1000
3000
3000
FFE0
3000
FFE0
3000
3000
18E0
0880
0700
ENDCHAR
STARTCHAR 3000
ENCODING 12288
SWIDTH 1020 0
DWIDTH 17 0
BBX 0 0 0 0
BITMAP
ENDCHAR
ENDFONT
